<svg width="507" height="568" viewBox="0 0 507 568" fill="none" xmlns="http://www.w3.org/2000/svg">
<mask id="mask0_101_63" style="mask-type:alpha" maskUnits="userSpaceOnUse" x="0" y="0" width="507" height="568">
<path d="M0 8.00001C0 3.58173 3.58172 0 8 0H499C503.418 0 507 3.58172 507 8V568H0V8.00001Z" fill="#1A1837"/>
</mask>
<g mask="url(#mask0_101_63)">
<path d="M435.679 123.487C479.252 80.2658 500.049 13.151 505 -15.0038V-71.3132L-2.33529 -93L-13 519.556C18.1054 544.794 92.8853 580.126 143.162 519.556C206.007 443.842 244.857 446.125 268.853 446.125C292.849 446.125 392.259 459.061 452.819 402.752C513.379 346.442 435.679 276.055 418.159 257.793C402.094 241.048 381.213 177.514 435.679 123.487Z" fill="#DB3372"/>
<path d="M285.376 91.2357C277.034 60.1036 270.746 -40.4929 268.645 -86.8996L-122.993 -67.6333L-37.743 250.524C-11.4867 241.234 75.9281 287.703 154.393 328.115C232.858 368.526 281.805 325.745 291.648 291.337C301.252 257.764 295.803 130.151 285.376 91.2357Z" fill="#F2C6CE"/>
</g>
</svg>
