<svg width="450" height="851" viewBox="0 0 450 851" fill="none" xmlns="http://www.w3.org/2000/svg">
<mask id="mask0_101_68" style="mask-type:alpha" maskUnits="userSpaceOnUse" x="0" y="0" width="450" height="851">
<rect width="450" height="851" fill="#D9D9D9"/>
</mask>
<g mask="url(#mask0_101_68)">
<path fill-rule="evenodd" clip-rule="evenodd" d="M449.629 60.9415C519.448 65.5588 590.755 48.1263 653.559 76.9787C730.494 112.323 836.341 144.886 844.148 242.185C852.181 342.298 722.449 403.606 687.661 501.992C652.63 601.063 720.537 736.275 645.701 803.411C572.117 869.425 476.45 792.296 394.762 764.756C336.847 745.231 298.057 694.743 243.165 667.703C165.485 629.438 27.6247 669.987 7.9836 574.23C-11.6723 478.401 133.993 418.955 172.373 322.572C207.826 233.544 150.529 111.317 217.48 48.1396C283.095 -13.7779 370.434 55.7042 449.629 60.9415Z" fill="#3B477C"/>
<path d="M750.578 518.492C764.859 478.134 792.629 446.483 799.348 403.829C809.7 338.114 868.695 256.664 799.692 206.727C729.062 155.614 643.814 236.739 556.906 228.378C479.707 220.951 392.615 128.821 335.72 162.091C278.06 195.809 366.648 285.844 355.697 346.038C345.312 403.123 258.513 433.831 275.335 494.017C293.55 559.187 367.58 613.203 440.851 650.708C519.752 691.094 621.718 737.266 691.973 707.276C762.953 676.976 727.929 582.5 750.578 518.492Z" fill="#02AE9E"/>
</g>
</svg>
