<svg width="244" height="208" viewBox="0 0 244 208" fill="none" xmlns="http://www.w3.org/2000/svg">
<path d="M173.348 43.3978C211.919 56.8148 232.311 98.9598 218.894 137.531C205.477 176.103 163.332 196.494 124.76 183.077L69.8397 163.973C31.2683 150.556 10.8767 108.411 24.2937 69.8397C37.7107 31.2683 79.8557 10.8767 118.427 24.2937L173.348 43.3978ZM30.2486 71.9106C17.9756 107.193 36.6284 145.744 71.9109 158.017L126.831 177.121C162.114 189.394 200.665 170.741 212.938 135.459C225.211 100.177 206.558 61.6253 171.276 49.3524L116.355 30.2483C81.0728 17.9753 42.5216 36.6281 30.2486 71.9106Z" fill="#7022D6"/>
<circle cx="80.5195" cy="41.7809" r="3.15258" transform="rotate(19.1802 80.5195 41.7809)" fill="#282828"/>
<circle cx="105.57" cy="50.4948" r="3.15258" transform="rotate(19.1802 105.57 50.4948)" fill="#282828"/>
<path d="M97.8595 59.1615C96.7155 62.4505 92.0553 63.8183 87.4508 62.2166C82.8463 60.6149 80.041 56.6503 81.1851 53.3613" stroke="#282828" stroke-width="2.52207" stroke-linecap="round"/>
</svg>
